<svg xmlns="http://www.w3.org/2000/svg" version="1.1" xmlns:xlink="http://www.w3.org/1999/xlink" xmlns:svgjs="http://svgjs.dev/svgjs" width="767" height="568" preserveAspectRatio="none" viewBox="0 0 767 568"><g mask="url(&quot;#SvgjsMask1018&quot;)" fill="none"><rect width="767" height="568" x="0" y="0" fill="url(&quot;#SvgjsLinearGradient1019&quot;)"></rect><path d="M390.16 599.9C493.91 493.76 451.9 78.92 595.4 42.8 738.91 6.68 740.07 168.06 800.65 173.44" stroke="rgba(51,121,194,0.58)" stroke-width="2"></path><path d="M229.4 616.49C343.91 558.79 357.99 186.49 504.18 183.4 650.37 180.31 690.16 401.34 778.96 416.28" stroke="rgba(51,121,194,0.58)" stroke-width="2"></path><path d="M341.2 680.82C412.42 674.83 431.62 551.28 583.99 529.86 736.35 508.44 745.35 319.42 826.77 302.66" stroke="rgba(51,121,194,0.58)" stroke-width="2"></path><path d="M363.69 634.16C467.96 574.91 474.9 223.7 605.57 219.89 736.23 216.08 767.78 420.82 847.44 435.73" stroke="rgba(51,121,194,0.58)" stroke-width="2"></path><path d="M404.43 635.71C503.2 595.71 485.98 328.07 656.06 291.67 826.13 255.27 836.26 159.64 907.68 155.35" stroke="rgba(51,121,194,0.58)" stroke-width="2"></path></g><defs><mask id="SvgjsMask1018"><rect width="767" height="568" fill="#ffffff"></rect></mask><linearGradient x1="6.49%" y1="-8.76%" x2="93.51%" y2="108.76%" gradientUnits="userSpaceOnUse" id="SvgjsLinearGradient1019"><stop stop-color="#0e2a47" offset="0"></stop><stop stop-color="#00459e" offset="1"></stop></linearGradient></defs></svg>