<svg xmlns="http://www.w3.org/2000/svg" version="1.1" xmlns:xlink="http://www.w3.org/1999/xlink" xmlns:svgjs="http://svgjs.dev/svgjs" width="1440" height="560" preserveAspectRatio="none" viewBox="0 0 1440 560"><g mask="url(&quot;#SvgjsMask1000&quot;)" fill="none"><rect width="1440" height="560" x="0" y="0" fill="#0e2a47"></rect><path d="M262.48 643.81C475.35 621.95 612.55 164.62 971.28 163.95 1330.01 163.28 1491.58 417.6 1680.08 421.55" stroke="rgba(51,121,194,0.58)" stroke-width="2"></path><path d="M409.27 580C528.69 565.46 596.44 298.31 798 296.38 999.56 294.45 992.36 366.38 1186.73 366.38 1381.09 366.38 1476.71 296.66 1575.46 296.38" stroke="rgba(51,121,194,0.58)" stroke-width="2"></path><path d="M366.81 591.18C550.36 573.12 667.65 184.11 981.22 182.82 1294.79 181.53 1437.11 338.39 1595.63 339.62" stroke="rgba(51,121,194,0.58)" stroke-width="2"></path><path d="M499.63 630.28C628.69 601.1 589.04 260.41 877.29 259.48 1165.54 258.55 1439.75 415.46 1632.6 416.28" stroke="rgba(51,121,194,0.58)" stroke-width="2"></path><path d="M275.22 620.06C415.11 592.25 470.87 239.06 695.16 233.88 919.46 228.7 905.13 303.88 1115.11 303.88 1325.08 303.88 1428.62 234.12 1535.05 233.88" stroke="rgba(51,121,194,0.58)" stroke-width="2"></path></g><defs><mask id="SvgjsMask1000"><rect width="1440" height="560" fill="#ffffff"></rect></mask></defs></svg>